{
  "accessors": [
    {
      "bufferView": 2,
      "componentType": 5126,
      "count": 1108,
      "max": [
        5.0289998054504395,
        0.7059990167617798,
        0.05000000074505806
      ],
      "min": [
        -0.029572000727057457,
        -0.02600100077688694,
        -0.05000000074505806
      ],
      "type": "VEC3"
    },
    {
      "bufferView": 2,
      "byteOffset": 13296,
      "componentType": 5126,
      "count": 1108,
      "max": [
        1.0,
        1.0,
        1.0
      ],
      "min": [
        -1.0,
        -1.0,
        -1.0
      ],
      "type": "VEC3"
    },
    {
      "bufferView": 3,
      "componentType": 5126,
      "count": 1108,
      "max": [
        1.0,
        0.997839629650116,
        1.0,
        1.0
      ],
      "min": [
        -1.0,
        -0.7071078419685364,
        -1.0,
        1.0
      ],
      "type": "VEC4"
    },
    {
      "bufferView": 1,
      "componentType": 5126,
      "count": 1108,
      "max": [
        1.0,
        0.9998930096626282
      ],
      "min": [
        0.0,
        0.0
      ],
      "type": "VEC2"
    },
    {
      "bufferView": 0,
      "componentType": 5125,
      "count": 1782,
      "type": "SCALAR"
    },
    {
      "bufferView": 2,
      "byteOffset": 26592,
      "componentType": 5126,
      "count": 2517,
      "max": [
        0.3008269965648651,
        1.6493799686431885,
        -0.46226000785827637
      ],
      "min": [
        -7.611268997192383,
        -3.0978329181671143,
        -8.10209846496582
      ],
      "type": "VEC3"
    },
    {
      "bufferView": 2,
      "byteOffset": 56796,
      "componentType": 5126,
      "count": 2517,
      "max": [
        1.0,
        0.9994526505470276,
        1.0
      ],
      "min": [
        -1.0,
        -0.9994535446166992,
        -1.0
      ],
      "type": "VEC3"
    },
    {
      "bufferView": 3,
      "byteOffset": 17728,
      "componentType": 5126,
      "count": 2517,
      "max": [
        0.9769805073738098,
        0.9999796152114868,
        0.999997079372406,
        1.0
      ],
      "min": [
        -0.9662754535675049,
        -0.9764121770858765,
        -0.9999998211860657,
        1.0
      ],
      "type": "VEC4"
    },
    {
      "bufferView": 1,
      "byteOffset": 8864,
      "componentType": 5126,
      "count": 2517,
      "max": [
        0.9976289868354797,
        0.9954050183296204
      ],
      "min": [
        0.0,
        0.0
      ],
      "type": "VEC2"
    },
    {
      "bufferView": 0,
      "byteOffset": 7128,
      "componentType": 5125,
      "count": 7920,
      "type": "SCALAR"
    },
    {
      "bufferView": 2,
      "byteOffset": 87000,
      "componentType": 5126,
      "count": 3246,
      "max": [
        1.0863749980926514,
        5.048181056976318,
        2.529670000076294
      ],
      "min": [
        -0.77183598279953,
        -0.9582409858703613,
        -2.529670000076294
      ],
      "type": "VEC3"
    },
    {
      "bufferView": 2,
      "byteOffset": 125952,
      "componentType": 5126,
      "count": 3246,
      "max": [
        1.0,
        1.0,
        0.9999828934669495
      ],
      "min": [
        -1.0,
        -1.0,
        -0.9999828934669495
      ],
      "type": "VEC3"
    },
    {
      "bufferView": 3,
      "byteOffset": 58000,
      "componentType": 5126,
      "count": 3246,
      "max": [
        1.0,
        0.9992643594741821,
        0.9996351003646851,
        1.0
      ],
      "min": [
        -1.0,
        -1.0,
        -0.9996351003646851,
        1.0
      ],
      "type": "VEC4"
    },
    {
      "bufferView": 1,
      "byteOffset": 29000,
      "componentType": 5126,
      "count": 3246,
      "max": [
        0.9979469776153564,
        0.9971029758453369
      ],
      "min": [
        0.0,
        0.0
      ],
      "type": "VEC2"
    },
    {
      "bufferView": 0,
      "byteOffset": 38808,
      "componentType": 5125,
      "count": 10608,
      "type": "SCALAR"
    },
    {
      "bufferView": 2,
      "byteOffset": 164904,
      "componentType": 5126,
      "count": 204,
      "max": [
        1.747810959815979,
        0.0,
        1.5900150537490845
      ],
      "min": [
        -0.0,
        -0.25,
        -1.8851970434188843
      ],
      "type": "VEC3"
    },
    {
      "bufferView": 2,
      "byteOffset": 167352,
      "componentType": 5126,
      "count": 204,
      "max": [
        1.0,
        1.0,
        1.0
      ],
      "min": [
        -1.0,
        -1.0,
        -1.0
      ],
      "type": "VEC3"
    },
    {
      "bufferView": 3,
      "byteOffset": 109936,
      "componentType": 5126,
      "count": 204,
      "max": [
        1.0,
        1.0,
        0.00016905937809497118,
        1.0
      ],
      "min": [
        -1.0,
        -1.0,
        -0.0001354120613541454,
        1.0
      ],
      "type": "VEC4"
    },
    {
      "bufferView": 1,
      "byteOffset": 54968,
      "componentType": 5126,
      "count": 204,
      "max": [
        0.9874160289764404,
        0.9341890215873718
      ],
      "min": [
        0.7823010087013245,
        0.008326999843120575
      ],
      "type": "VEC2"
    },
    {
      "bufferView": 0,
      "byteOffset": 81240,
      "componentType": 5125,
      "count": 648,
      "type": "SCALAR"
    },
    {
      "bufferView": 2,
      "byteOffset": 169800,
      "componentType": 5126,
      "count": 84,
      "max": [
        -0.2603810131549835,
        0.021745000034570694,
        1.8378030061721802
      ],
      "min": [
        -1.8304439783096313,
        -0.018254999071359634,
        -1.4596610069274902
      ],
      "type": "VEC3"
    },
    {
      "bufferView": 2,
      "byteOffset": 170808,
      "componentType": 5126,
      "count": 84,
      "max": [
        1.0,
        1.0,
        1.0
      ],
      "min": [
        -1.0,
        -1.0,
        -1.0
      ],
      "type": "VEC3"
    },
    {
      "bufferView": 3,
      "byteOffset": 113200,
      "componentType": 5126,
      "count": 84,
      "max": [
        1.0,
        1.0,
        0.0010479369666427374,
        1.0
      ],
      "min": [
        0.0,
        -1.0,
        -0.0002619316801428795,
        1.0
      ],
      "type": "VEC4"
    },
    {
      "bufferView": 1,
      "byteOffset": 56600,
      "componentType": 5126,
      "count": 84,
      "max": [
        0.7823010087013245,
        0.9075449705123901
      ],
      "min": [
        0.17775100469589233,
        0.46542999148368835
      ],
      "type": "VEC2"
    },
    {
      "bufferView": 0,
      "byteOffset": 83832,
      "componentType": 5125,
      "count": 228,
      "type": "SCALAR"
    },
    {
      "bufferView": 2,
      "byteOffset": 171816,
      "componentType": 5126,
      "count": 66,
      "max": [
        1.0,
        1.0000020265579224,
        1.0
      ],
      "min": [
        -1.0,
        -0.9999979734420776,
        -1.0000009536743164
      ],
      "type": "VEC3"
    },
    {
      "bufferView": 2,
      "byteOffset": 172608,
      "componentType": 5126,
      "count": 66,
      "max": [
        1.0,
        1.0,
        1.0
      ],
      "min": [
        -0.9659258723258972,
        -0.9659258723258972,
        -1.0
      ],
      "type": "VEC3"
    },
    {
      "bufferView": 3,
      "byteOffset": 114544,
      "componentType": 5126,
      "count": 66,
      "max": [
        0.965925931930542,
        1.0,
        0.0,
        1.0
      ],
      "min": [
        -1.0,
        -0.965925931930542,
        0.0,
        1.0
      ],
      "type": "VEC4"
    },
    {
      "bufferView": 1,
      "byteOffset": 57272,
      "componentType": 5126,
      "count": 66,
      "max": [
        0.9456760287284851,
        0.931656002998352
      ],
      "min": [
        0.17995600402355194,
        0.0
      ],
      "type": "VEC2"
    },
    {
      "bufferView": 0,
      "byteOffset": 84744,
      "componentType": 5125,
      "count": 132,
      "type": "SCALAR"
    },
    {
      "bufferView": 2,
      "byteOffset": 173400,
      "componentType": 5126,
      "count": 66,
      "max": [
        1.0,
        1.0,
        0.9999989867210388
      ],
      "min": [
        -1.0,
        -0.9999979734420776,
        -1.0
      ],
      "type": "VEC3"
    },
    {
      "bufferView": 2,
      "byteOffset": 174192,
      "componentType": 5126,
      "count": 66,
      "max": [
        1.0,
        1.0,
        1.0
      ],
      "min": [
        -0.9659258723258972,
        -0.9659258723258972,
        -1.0
      ],
      "type": "VEC3"
    },
    {
      "bufferView": 3,
      "byteOffset": 115600,
      "componentType": 5126,
      "count": 66,
      "max": [
        0.9659258723258972,
        1.0,
        0.0,
        1.0
      ],
      "min": [
        -1.0,
        -0.965925931930542,
        0.0,
        1.0
      ],
      "type": "VEC4"
    },
    {
      "bufferView": 1,
      "byteOffset": 57800,
      "componentType": 5126,
      "count": 66,
      "max": [
        0.37512698769569397,
        0.9426019787788391
      ],
      "min": [
        0.0,
        0.740094006061554
      ],
      "type": "VEC2"
    },
    {
      "bufferView": 0,
      "byteOffset": 85272,
      "componentType": 5125,
      "count": 132,
      "type": "SCALAR"
    },
    {
      "bufferView": 2,
      "byteOffset": 174984,
      "componentType": 5126,
      "count": 911,
      "max": [
        -0.17150700092315674,
        0.36916500329971313,
        1.9266760349273682
      ],
      "min": [
        -1.9193179607391357,
        -0.18210500478744507,
        -1.5485349893569946
      ],
      "type": "VEC3"
    },
    {
      "bufferView": 2,
      "byteOffset": 185916,
      "componentType": 5126,
      "count": 911,
      "max": [
        1.0,
        1.0,
        1.0
      ],
      "min": [
        -1.0,
        -1.0,
        -1.0
      ],
      "type": "VEC3"
    },
    {
      "bufferView": 3,
      "byteOffset": 116656,
      "componentType": 5126,
      "count": 911,
      "max": [
        1.0,
        0.9999996423721313,
        0.9360114336013794,
        1.0
      ],
      "min": [
        -1.0,
        -1.0,
        -0.9994592070579529,
        1.0
      ],
      "type": "VEC4"
    },
    {
      "bufferView": 1,
      "byteOffset": 58328,
      "componentType": 5126,
      "count": 911,
      "max": [
        0.9963409900665283,
        0.9962149858474731
      ],
      "min": [
        0.04632499814033508,
        0.0
      ],
      "type": "VEC2"
    },
    {
      "bufferView": 0,
      "byteOffset": 85800,
      "componentType": 5125,
      "count": 2820,
      "type": "SCALAR"
    },
    {
      "bufferView": 2,
      "byteOffset": 196848,
      "componentType": 5126,
      "count": 1347,
      "max": [
        2.222805976867676,
        0.9702180027961731,
        3.2695140838623047
      ],
      "min": [
        -1.9901390075683594,
        -0.9702180027961731,
        -3.116955041885376
      ],
      "type": "VEC3"
    },
    {
      "bufferView": 2,
      "byteOffset": 213012,
      "componentType": 5126,
      "count": 1347,
      "max": [
        1.0,
        1.0,
        1.0
      ],
      "min": [
        -1.0,
        -1.0,
        -1.0
      ],
      "type": "VEC3"
    },
    {
      "bufferView": 3,
      "byteOffset": 131232,
      "componentType": 5126,
      "count": 1347,
      "max": [
        1.0,
        1.0,
        1.0,
        1.0
      ],
      "min": [
        -1.0,
        -1.0,
        -0.9999986290931702,
        1.0
      ],
      "type": "VEC4"
    },
    {
      "bufferView": 1,
      "byteOffset": 65616,
      "componentType": 5126,
      "count": 1347,
      "max": [
        0.9999570250511169,
        0.9975939989089966
      ],
      "min": [
        0.0,
        0.0
      ],
      "type": "VEC2"
    },
    {
      "bufferView": 0,
      "byteOffset": 97080,
      "componentType": 5125,
      "count": 3996,
      "type": "SCALAR"
    }
  ],
  "asset": {
    "extras": {
      "author": "gozdemrl (https://sketchfab.com/gozdemrl)",
      "license": "CC-BY-4.0 (http://creativecommons.org/licenses/by/4.0/)",
      "source": "https://sketchfab.com/3d-models/vintage-walkman-25e106196b0547f99a64f0ab782e620c",
      "title": "Vintage Walkman"
    },
    "generator": "Sketchfab-12.68.0",
    "version": "2.0"
  },
  "bufferViews": [
    {
      "buffer": 0,
      "byteLength": 113064,
      "name": "floatBufferViews",
      "target": 34963
    },
    {
      "buffer": 0,
      "byteLength": 76392,
      "byteOffset": 113064,
      "byteStride": 8,
      "name": "floatBufferViews",
      "target": 34962
    },
    {
      "buffer": 0,
      "byteLength": 229176,
      "byteOffset": 189456,
      "byteStride": 12,
      "name": "floatBufferViews",
      "target": 34962
    },
    {
      "buffer": 0,
      "byteLength": 152784,
      "byteOffset": 418632,
      "byteStride": 16,
      "name": "floatBufferViews",
      "target": 34962
    }
  ],
  "buffers": [
    {
      "byteLength": 571416,
      "uri": "scene.bin"
    }
  ],
  "images": [
    {
      "uri": "textures/walkman_baseColor.jpeg"
    },
    {
      "uri": "textures/walkman_metallicRoughness.png"
    },
    {
      "uri": "textures/walkman_normal.png"
    },
    {
      "uri": "textures/kaset_baseColor.png"
    },
    {
      "uri": "textures/kaset_metallicRoughness.png"
    },
    {
      "uri": "textures/kaset_normal.png"
    },
    {
      "uri": "textures/Glass_baseColor.png"
    },
    {
      "uri": "textures/Glass_metallicRoughness.png"
    },
    {
      "uri": "textures/Glass_normal.png"
    },
    {
      "uri": "textures/head_baseColor.jpeg"
    },
    {
      "uri": "textures/head_metallicRoughness.png"
    },
    {
      "uri": "textures/head_normal.png"
    },
    {
      "uri": "textures/Kablo_baseColor.jpeg"
    },
    {
      "uri": "textures/Kablo_metallicRoughness.png"
    },
    {
      "uri": "textures/Kablo_normal.png"
    },
    {
      "uri": "textures/text_baseColor.jpeg"
    },
    {
      "uri": "textures/text_metallicRoughness.png"
    },
    {
      "uri": "textures/text_normal.png"
    }
  ],
  "materials": [
    {
      "doubleSided": true,
      "name": "walkman",
      "normalTexture": {
        "index": 2
      },
      "occlusionTexture": {
        "index": 1
      },
      "pbrMetallicRoughness": {
        "baseColorTexture": {
          "index": 0
        },
        "metallicRoughnessTexture": {
          "index": 1
        }
      }
    },
    {
      "alphaMode": "BLEND",
      "doubleSided": true,
      "name": "kaset",
      "normalTexture": {
        "index": 5
      },
      "occlusionTexture": {
        "index": 4
      },
      "pbrMetallicRoughness": {
        "baseColorTexture": {
          "index": 3
        },
        "metallicRoughnessTexture": {
          "index": 4
        }
      }
    },
    {
      "alphaMode": "BLEND",
      "doubleSided": true,
      "name": "Glass",
      "normalTexture": {
        "index": 8
      },
      "occlusionTexture": {
        "index": 7
      },
      "pbrMetallicRoughness": {
        "baseColorTexture": {
          "index": 6
        },
        "metallicRoughnessTexture": {
          "index": 7
        }
      }
    },
    {
      "doubleSided": true,
      "name": "head",
      "normalTexture": {
        "index": 11
      },
      "occlusionTexture": {
        "index": 10
      },
      "pbrMetallicRoughness": {
        "baseColorTexture": {
          "index": 9
        },
        "metallicRoughnessTexture": {
          "index": 10
        }
      }
    },
    {
      "doubleSided": true,
      "name": "Kablo",
      "normalTexture": {
        "index": 14
      },
      "occlusionTexture": {
        "index": 13
      },
      "pbrMetallicRoughness": {
        "baseColorTexture": {
          "index": 12
        },
        "metallicRoughnessTexture": {
          "index": 13
        }
      }
    },
    {
      "doubleSided": true,
      "name": "text",
      "normalTexture": {
        "index": 17
      },
      "occlusionTexture": {
        "index": 16
      },
      "pbrMetallicRoughness": {
        "baseColorTexture": {
          "index": 15
        },
        "metallicRoughnessTexture": {
          "index": 16
        }
      }
    }
  ],
  "meshes": [
    {
      "name": "defaultMaterial",
      "primitives": [
        {
          "attributes": {
            "NORMAL": 1,
            "POSITION": 0,
            "TANGENT": 2,
            "TEXCOORD_0": 3
          },
          "indices": 4,
          "material": 5,
          "mode": 4
        }
      ]
    },
    {
      "name": "defaultMaterial",
      "primitives": [
        {
          "attributes": {
            "NORMAL": 6,
            "POSITION": 5,
            "TANGENT": 7,
            "TEXCOORD_0": 8
          },
          "indices": 9,
          "material": 4,
          "mode": 4
        }
      ]
    },
    {
      "name": "defaultMaterial",
      "primitives": [
        {
          "attributes": {
            "NORMAL": 11,
            "POSITION": 10,
            "TANGENT": 12,
            "TEXCOORD_0": 13
          },
          "indices": 14,
          "material": 3,
          "mode": 4
        }
      ]
    },
    {
      "name": "defaultMaterial",
      "primitives": [
        {
          "attributes": {
            "NORMAL": 16,
            "POSITION": 15,
            "TANGENT": 17,
            "TEXCOORD_0": 18
          },
          "indices": 19,
          "material": 0,
          "mode": 4
        }
      ]
    },
    {
      "name": "defaultMaterial",
      "primitives": [
        {
          "attributes": {
            "NORMAL": 21,
            "POSITION": 20,
            "TANGENT": 22,
            "TEXCOORD_0": 23
          },
          "indices": 24,
          "material": 2,
          "mode": 4
        }
      ]
    },
    {
      "name": "defaultMaterial",
      "primitives": [
        {
          "attributes": {
            "NORMAL": 26,
            "POSITION": 25,
            "TANGENT": 27,
            "TEXCOORD_0": 28
          },
          "indices": 29,
          "material": 1,
          "mode": 4
        }
      ]
    },
    {
      "name": "defaultMaterial",
      "primitives": [
        {
          "attributes": {
            "NORMAL": 31,
            "POSITION": 30,
            "TANGENT": 32,
            "TEXCOORD_0": 33
          },
          "indices": 34,
          "material": 1,
          "mode": 4
        }
      ]
    },
    {
      "name": "defaultMaterial",
      "primitives": [
        {
          "attributes": {
            "NORMAL": 36,
            "POSITION": 35,
            "TANGENT": 37,
            "TEXCOORD_0": 38
          },
          "indices": 39,
          "material": 1,
          "mode": 4
        }
      ]
    },
    {
      "name": "defaultMaterial",
      "primitives": [
        {
          "attributes": {
            "NORMAL": 41,
            "POSITION": 40,
            "TANGENT": 42,
            "TEXCOORD_0": 43
          },
          "indices": 44,
          "material": 0,
          "mode": 4
        }
      ]
    }
  ],
  "nodes": [
    {
      "children": [
        1
      ],
      "matrix": [
        1.0,
        0.0,
        0.0,
        0.0,
        0.0,
        2.220446049250313e-16,
        -1.0,
        0.0,
        0.0,
        1.0,
        2.220446049250313e-16,
        0.0,
        0.0,
        0.0,
        0.0,
        1.0
      ],
      "name": "Sketchfab_model"
    },
    {
      "children": [
        2,
        4,
        6,
        8,
        16,
        18
      ],
      "matrix": [
        1.0,
        0.0,
        0.0,
        0.0,
        0.0,
        -4.371139006309477e-08,
        0.999999999999999,
        0.0,
        0.0,
        -0.999999999999999,
        -4.371139006309477e-08,
        0.0,
        0.0,
        0.0,
        0.0,
        1.0
      ],
      "name": "Collada visual scene group"
    },
    {
      "children": [
        3
      ],
      "matrix": [
        -1.6e-05,
        -100.0,
        0.0,
        0.0,
        100.0,
        -1.6e-05,
        -1.3e-05,
        0.0,
        1.3e-05,
        0.0,
        100.0,
        0.0,
        88.174629,
        575.027832,
        100.042679,
        1.0
      ],
      "name": "Text"
    },
    {
      "mesh": 0,
      "name": "defaultMaterial"
    },
    {
      "children": [
        5
      ],
      "matrix": [
        -4e-06,
        0.0,
        -100.0,
        0.0,
        -100.0,
        -4e-06,
        4e-06,
        0.0,
        -4e-06,
        100.0,
        0.0,
        0.0,
        20.935461,
        872.497192,
        -186.795166,
        1.0
      ],
      "name": "NurbsPath"
    },
    {
      "mesh": 1,
      "name": "defaultMaterial"
    },
    {
      "children": [
        7
      ],
      "matrix": [
        7e-06,
        -99.0588,
        13.687808,
        0.0,
        -72.703659,
        -9.398035,
        -68.013626,
        0.0,
        78.459137,
        -11.371834,
        -82.298111,
        0.0,
        -299.07074,
        127.514542,
        497.009003,
        1.0
      ],
      "name": "Cylinder.002"
    },
    {
      "mesh": 2,
      "name": "defaultMaterial"
    },
    {
      "children": [
        9,
        10,
        12,
        14
      ],
      "matrix": [
        79.813179,
        -3e-06,
        69.163513,
        0.0,
        69.163513,
        5e-06,
        -79.813179,
        0.0,
        -1e-06,
        105.611244,
        6e-06,
        0.0,
        -194.910019,
        365.837891,
        85.001091,
        1.0
      ],
      "name": "Cube.002"
    },
    {
      "mesh": 3,
      "name": "defaultMaterial"
    },
    {
      "children": [
        11
      ],
      "matrix": [
        1.0,
        0.0,
        0.0,
        0.0,
        0.0,
        1.0,
        0.0,
        0.0,
        0.0,
        0.0,
        1.0,
        0.0,
        1.919318,
        -0.161071,
        -0.336661,
        1.0
      ],
      "name": "Cube.003"
    },
    {
      "mesh": 4,
      "name": "defaultMaterial"
    },
    {
      "children": [
        13
      ],
      "matrix": [
        0.070416,
        0.039031,
        0.0,
        0.0,
        -0.039031,
        0.070416,
        0.0,
        0.0,
        0.0,
        0.0,
        0.159926,
        0.0,
        -0.061245,
        -0.042813,
        1.122283,
        1.0
      ],
      "name": "Cylinder"
    },
    {
      "mesh": 5,
      "name": "defaultMaterial"
    },
    {
      "children": [
        15
      ],
      "matrix": [
        0.070416,
        0.039031,
        0.0,
        0.0,
        -0.039031,
        0.070416,
        0.0,
        0.0,
        0.0,
        0.0,
        0.159926,
        0.0,
        -0.061245,
        -0.042813,
        -1.296036,
        1.0
      ],
      "name": "Cylinder.001"
    },
    {
      "mesh": 6,
      "name": "defaultMaterial"
    },
    {
      "children": [
        17
      ],
      "matrix": [
        98.898552,
        0.0,
        0.0,
        0.0,
        0.0,
        -1.6e-05,
        -98.898552,
        0.0,
        0.0,
        98.898552,
        -1.6e-05,
        0.0,
        -1.73502,
        330.282684,
        57.272739,
        1.0
      ],
      "name": "Cube.001"
    },
    {
      "mesh": 7,
      "name": "defaultMaterial"
    },
    {
      "children": [
        19
      ],
      "matrix": [
        100.0,
        0.0,
        0.0,
        0.0,
        0.0,
        -1.6e-05,
        -100.0,
        0.0,
        0.0,
        100.0,
        -1.6e-05,
        0.0,
        0.0,
        330.282684,
        0.0,
        1.0
      ],
      "name": "Cube"
    },
    {
      "mesh": 8,
      "name": "defaultMaterial"
    }
  ],
  "samplers": [
    {
      "magFilter": 9729,
      "minFilter": 9987,
      "wrapS": 10497,
      "wrapT": 10497
    }
  ],
  "scene": 0,
  "scenes": [
    {
      "name": "Sketchfab_Scene",
      "nodes": [
        0
      ]
    }
  ],
  "textures": [
    {
      "sampler": 0,
      "source": 0
    },
    {
      "sampler": 0,
      "source": 1
    },
    {
      "sampler": 0,
      "source": 2
    },
    {
      "sampler": 0,
      "source": 3
    },
    {
      "sampler": 0,
      "source": 4
    },
    {
      "sampler": 0,
      "source": 5
    },
    {
      "sampler": 0,
      "source": 6
    },
    {
      "sampler": 0,
      "source": 7
    },
    {
      "sampler": 0,
      "source": 8
    },
    {
      "sampler": 0,
      "source": 9
    },
    {
      "sampler": 0,
      "source": 10
    },
    {
      "sampler": 0,
      "source": 11
    },
    {
      "sampler": 0,
      "source": 12
    },
    {
      "sampler": 0,
      "source": 13
    },
    {
      "sampler": 0,
      "source": 14
    },
    {
      "sampler": 0,
      "source": 15
    },
    {
      "sampler": 0,
      "source": 16
    },
    {
      "sampler": 0,
      "source": 17
    }
  ]
}
